# xmcd CD database file
#
# Track frame offsets:
#	183
#	23528
#	47418
#	71608
#	109645
#	136485
#	157155
#	186948
#	219188
#
# Disc length: 3367 seconds
#
# Revision: 0
# Processed by: cddbd v1.4PL0 Copyright (c) Steve Scherf et al.
# Submitted via: CDex 1.50
#
DISCID=750d2509
DTITLE=Pharoah Sanders and William Henderson - A Prayer Before Dawn
DYEAR=1900
DGENRE=Jazz
TTITLE0=The Light at the Edge of the World
TTITLE1=Dedication to James W. Clark
TTITLE2=Softy for Shyla
TTITLE3=The Greatest Love of All
TTITLE4=Midnight at Yoshi's
TTITLE5=Living Space
TTITLE6=After the Rain
TTITLE7=In Your Own Sweet Way
TTITLE8=Christmas Song
EXTD=
EXTT0=
EXTT1=
EXTT2=
EXTT3=
EXTT4=
EXTT5=
EXTT6=
EXTT7=
EXTT8=
PLAYORDER=
